<svg width="201" height="32" viewBox="0 0 201 32" fill="none" xmlns="http://www.w3.org/2000/svg">
<path d="M7.54545 24.5L8.88636 20.0455H16.5682L17.9091 24.5H24.7273L17.0455 1.22727H8.40909L0.727273 24.5H7.54545ZM10.3182 15.3182L12.6364 7.63636H12.8182L15.1364 15.3182H10.3182ZM36.9178 18L33.2815 7.04545H26.0997V24.5H32.0088V16.0909L34.9633 24.5H38.8724L42.236 15.2045V24.5H48.0542V7.04545H40.736L36.9178 18ZM65.6539 0.727272C64.7789 1.25 63.2675 1.23864 61.2448 1.22727C60.972 1.22727 60.6766 1.22727 60.3811 1.22727C53.3357 1.22727 49.563 5.15909 49.563 14V15.1364C49.563 21.4091 52.9266 24.8182 58.6084 24.8182C64.2902 24.8182 67.6539 21.4205 67.6539 16.1818C67.6539 11.3409 64.7675 8.18182 60.063 8.18182C56.9948 8.18182 55.3357 9.54545 54.3811 11.6364H54.2448C54.6993 7.5 56.2902 6.18182 60.6084 6.18182C64.4266 6.18182 65.7902 5.90909 67.1993 4.90909L65.6539 0.727272ZM58.6539 20.1818C56.972 20.1818 55.972 18.8182 55.972 16.4545C55.972 14.0455 56.972 12.6818 58.6539 12.6818C60.2448 12.6818 61.2448 14.0455 61.2448 16.4545C61.2448 18.8182 60.2448 20.1818 58.6539 20.1818ZM75.245 16.5V7.04545H69.3359V24.5H75.245L80.1086 15V24.5H86.0177V7.04545H80.1086L75.245 16.5ZM87.2055 29.6818H93.2964V24.5H102.478V29.6818H108.387V19.7727H105.66V7.04545H90.7509L90.3873 11.9545C90.2055 14.4091 90.0691 19.1364 88.4782 19.7727H87.2055V29.6818ZM94.4782 19.7727C95.3873 18.1364 95.7509 15.7273 95.9327 11.9545V11.5909H99.8418V19.7727H94.4782ZM118.123 24.8182C122.964 24.8182 126.078 22.5 126.669 18.8636H120.941C120.578 19.8523 119.544 20.4091 118.26 20.4091C116.396 20.4091 115.305 19.1818 115.305 17.5V17.2273H126.669V15.7727C126.669 10.2159 123.26 6.81818 117.987 6.81818C112.578 6.81818 109.123 10.4091 109.123 15.8182C109.123 21.4659 112.532 24.8182 118.123 24.8182ZM115.305 13.7727C115.339 12.2614 116.589 11.2273 118.123 11.2273C119.68 11.2273 120.862 12.2727 120.896 13.7727H115.305ZM128.268 24.5H134.541V19.0909H135.95L139.314 24.5H146.587L140.95 15.8636L146.541 7.04545H139.359L135.632 13.2727H134.541V7.04545H128.268V24.5ZM154.78 24.8182C159.95 24.8182 163.121 21.8523 163.189 17.2273H157.371C157.235 19.0568 156.246 20.0455 154.871 20.0455C153.223 20.0455 152.144 18.6364 152.144 15.7727C152.144 12.9091 153.223 11.5 154.871 11.5C156.257 11.5 157.2 12.4886 157.371 14.3182H163.189C163.155 9.77273 159.916 6.81818 154.78 6.81818C149.098 6.81818 145.735 10.4545 145.735 15.8182C145.735 21.1818 149.098 24.8182 154.78 24.8182ZM163.766 11.7273H169.221V24.5H175.13V11.7273H180.675V7.04545H163.766V11.7273ZM182.045 31.0455H188.317V21.6364H188.408C189.136 23.4091 190.817 24.7273 193.272 24.7273C196.999 24.7273 200.136 21.8182 200.136 15.7727C200.136 9.45455 196.772 6.81818 193.317 6.81818C190.726 6.81818 189.09 8.31818 188.408 10.0909H188.272V7.04545H182.045V31.0455ZM188.181 15.7727C188.181 13.1818 189.226 11.6364 190.954 11.6364C192.681 11.6364 193.681 13.1818 193.681 15.7727C193.681 18.3636 192.681 19.9091 190.954 19.9091C189.226 19.9091 188.181 18.3182 188.181 15.7727Z" fill="black"/>
</svg>
